<?xml version="1.0" encoding="utf-8"?>
<!-- Generator: Adobe Illustrator 18.1.1, SVG Export Plug-In . SVG Version: 6.00 Build 0)  -->
<!DOCTYPE svg PUBLIC "-//W3C//DTD SVG 1.1//EN" "http://www.w3.org/Graphics/SVG/1.1/DTD/svg11.dtd">
<svg version="1.1" id="Layer_1" xmlns="http://www.w3.org/2000/svg" xmlns:xlink="http://www.w3.org/1999/xlink" x="0px" y="0px"
	 width="51.1px" height="51.1px" viewBox="0 0 51.1 51.1" style="enable-background:new 0 0 51.1 51.1;" xml:space="preserve">
<g>
	<g>
		<path style="fill:#82979E;" d="M6.2,18.9h8.3v26.6H6.2V18.9z M10.4,5.6c2.6,0,4.8,2.2,4.8,4.8c0,2.7-2.2,4.8-4.8,4.8
			c-2.7,0-4.8-2.2-4.8-4.8C5.6,7.8,7.7,5.6,10.4,5.6"/>
		<path style="fill:#82979E;" d="M19.7,18.9h7.9v3.6h0.1c1.1-2.1,3.8-4.3,7.8-4.3c8.4,0,9.9,5.5,9.9,12.7v14.6h-8.3v-13
			c0-3.1-0.1-7.1-4.3-7.1c-4.3,0-5,3.4-5,6.8v13.2h-8.3V18.9z"/>
	</g>
</g>
<g>
</g>
<g>
</g>
<g>
</g>
<g>
</g>
<g>
</g>
<g>
</g>
</svg>
