<?xml version="1.0" encoding="utf-8"?>
<!-- Generator: Adobe Illustrator 18.1.1, SVG Export Plug-In . SVG Version: 6.00 Build 0)  -->
<!DOCTYPE svg PUBLIC "-//W3C//DTD SVG 1.1//EN" "http://www.w3.org/Graphics/SVG/1.1/DTD/svg11.dtd">
<svg version="1.1" xmlns="http://www.w3.org/2000/svg" xmlns:xlink="http://www.w3.org/1999/xlink" x="0px" y="0px" width="80px"
	 height="80px" viewBox="0 0 80 80" style="enable-background:new 0 0 80 80;" xml:space="preserve">
<g id="Layer_1">
	<g>
		<defs>
			<path id="SVGID_1_" d="M80,18.5c-0.1,0.4-0.3,1.7-0.3,2.1c0,0.4,0.1,1.1-0.2,1.5c-0.3,0.4-1.4,0.4-1.7,0.8
				c-0.4,0.4-1.6,0.9-2.2,0.7c-0.6-0.2-0.6,0.3-1,0.2c-0.4-0.1-2-0.6-3.1-0.7c-1.2-0.1-6.6,2.7-7.3,3.4c-0.4,0.4-2.8,3.7-3.3,7.6
				c-0.1,0.8-2.7,3.5-3.6,4.6c-0.2,0.2-0.1,0.5,0.2,0.6c1.2,0.5,2.1,1.3,2.5,1.6c0.9,0.6,2.7,1,3,2s0.5,2.2,0.3,2.6
				C63,46,61.6,47,60.7,47.8c-0.9,0.7-1.1,1.4-3,1.3c-1.9-0.2-3.5,0.6-3.7,0s0.1-0.7,0.4-1.3c0.3-0.6,0.2-0.6,0.8-1.4s0.7-0.5,2-0.4
				c1.2,0.1,1.8,0.1,1.6-0.7c-0.2-0.8,0.3-1.3-1.6-1.3c-0.9,0-2.4-0.3-3.7-0.6c-1.6,2.2-3.3,5.4-4.1,9.2c0,0.2-0.1,5.3-0.3,6
				c-0.2,0.7-0.3,1.4,0,2.3c0.3,1,0.3,2.6,1.3,3c1.1,0.4,1.9,1.2,2.2,1.7c0.4,0.5,0.4,0.9,0.4,0.9s-0.1,0-0.7,0
				c-0.6,0-1.1,0.4-2.1,0.2c-0.9-0.2-2.1,0.4-2.3-0.3c-0.3-0.6-0.5-0.8-0.6-1c-0.2-0.2-0.5,0.3-0.6-0.9c0-1.2,0.2-2.1-0.5-2.9
				c-0.7-0.8-1.6-0.6-1.6-1.4c0-0.8,0.7-3.1,0.9-5.1c0.2-2,0.3-8.3,0.3-8.5c0-0.2,0.5-3.5-0.1-3.9c-0.7-0.3-8.9-3.3-9.8-4.2
				c-0.9-0.9-6.8-3.6-8.5-1c-1.7,2.6-1.7,5.3-3.2,7c-1.5,1.8-3.6,3.6-4.5,5.1c-0.9,1.5-2.6,4.3-2.6,6c0,1.7-0.1,2.9,0.5,3.5
				c0.6,0.6,1,1.5,0.9,1.5c-0.1,0.1-1,0.2-1.4,0.3c-0.4,0.1-2.1,0-2.4-0.4c-0.3-0.5-0.6-1.2,0-2.2c0.6-1,0.3-6.3,0.1-7.1
				c-0.1-0.9,0.3-1.1,0.9-1.8c0.7-0.7,2.3-3.3,2.4-3.5c0-0.2-3.3,2.8-4.2,3.4c-0.9,0.6-4,3.4-4.6,5c-0.6,1.6-2.5,2.9-2.1,7.6
				c0,0,1.1,0.2,1.2,1.2c0,1-0.5,0.7-0.5,0.7s-0.7-0.3-0.8-0.1c0,0.2-0.5,0.5-1,0.1c-0.5-0.4-0.9-0.2-1.3-0.8
				c-0.4-0.5-0.8-1.6-0.4-2.5C4.9,59.7,6,52.4,6,52.1c0-0.3,0.7-1,1-1.3c0.3-0.2,3.1-2.3,4.8-6.4c1.7-4.1,2.4-6.9,2.6-7.8
				c0.2-0.9-0.3-3.2,0.5-4.2c0.8-0.9,1.8-1.6,1.7-1.9c-0.1-0.3,0-0.6-1.9-0.5c-1.8,0.1-7.1,0.4-10.4-1C1.2,27.8,0,26.5,0,26.3
				c0-0.2,0.2-0.6,1.4-0.1c1.2,0.5,2.1,1.3,3.1,1.4c0.9,0.1,4.1,1.4,6.7,1.3c2.6-0.2,5.3-0.7,6.3-1c1-0.3,1.7-0.9,2.6-1.1
				c0.9-0.2,1.4-0.5,2.2-0.8c0.7-0.3,8.9-2,12.7-2.2c3.8-0.3,4.9-0.4,5.6-0.4c1.6-0.1,1.6-0.8,8-1.3c2-0.2,6.5-1.4,8.4-2.9
				c1.2-0.9,3.5-2.4,4.7-2.9c0,0,1.2-0.2,1.8-1.1c0.5-1,2-1.5,2.5-1.4c0.5,0.1,2.5-0.1,3-0.1c0.4,0,2.2,0.2,3,1
				c0.8,0.8,1.3,1.5,1.5,1.9c0.2,0.4,1.9,1.2,2.7,1.3c0.8,0.2,1.7,0.3,2.4,0.2C79.1,17.8,80.1,18.1,80,18.5z"/>
		</defs>
		<clipPath id="SVGID_2_">
			<use xlink:href="#SVGID_1_"  style="overflow:visible;"/>
		</clipPath>
		<g style="clip-path:url(#SVGID_2_);">
			<rect x="0" y="9" style="fill:#ECC669;" width="80" height="5.5"/>
			<rect x="0" y="14.5" style="fill:#FCB34B;" width="80" height="5.5"/>
			<rect x="0" y="20" style="fill:#F05726;" width="80" height="5.5"/>
			<rect x="0" y="25.5" style="fill:#E71E5B;" width="80" height="5.5"/>
			<rect x="0" y="31" style="fill:#D53392;" width="80" height="5.5"/>
			<rect x="0" y="36.5" style="fill:#A26FAF;" width="80" height="5.5"/>
			<rect x="0" y="42" style="fill:#7D3A96;" width="80" height="5.5"/>
			<rect x="0" y="47.4" style="fill:#4491C7;" width="80" height="5.5"/>
			<rect x="0" y="52.9" style="fill:#66CDEE;" width="80" height="5.5"/>
			<rect x="0" y="58.4" style="fill:#99D3B4;" width="80" height="5.5"/>
			<rect x="0" y="63.9" style="fill:#6DB358;" width="80" height="5.5"/>
		</g>
	</g>
</g>
<g id="Layer_2">
	<path style="fill:#3D2C28;" d="M80,18.6c-0.1,0.4-0.3,1.7-0.3,2.1c0,0.4,0.1,1-0.2,1.5c-0.3,0.4-1.4,0.4-1.7,0.8
		c-0.4,0.4-1.6,0.9-2.2,0.7c-0.6-0.2-0.6,0.3-1,0.2c-0.4-0.1-2-0.6-3.1-0.7c-1.2-0.1-6.5,2.7-7.2,3.4c-0.4,0.4-2.8,3.7-3.3,7.6
		c-0.1,0.8-2.7,3.5-3.6,4.6c-0.2,0.2-0.1,0.5,0.2,0.6c1.2,0.5,2.1,1.3,2.5,1.6c0.9,0.6,2.7,1,3,2c0.3,1,0.5,2.2,0.3,2.6
		c-0.2,0.4-1.6,1.4-2.5,2.1c-0.9,0.7-1.1,1.4-3,1.3c-1.9-0.2-3.5,0.6-3.7,0c-0.3-0.5,0.1-0.7,0.4-1.3c0.3-0.6,0.2-0.6,0.8-1.4
		c0.7-0.8,0.7-0.5,2-0.4s1.8,0.1,1.6-0.7s0.3-1.3-1.6-1.3c-0.9,0-2.4-0.3-3.7-0.6c-1.6,2.2-3.3,5.3-4.1,9.2c0,0.2-0.1,5.3-0.3,6
		c-0.2,0.7-0.3,1.4,0,2.3c0.3,1,0.3,2.6,1.3,2.9c1.1,0.4,1.9,1.2,2.2,1.7c0.4,0.5,0.4,0.9,0.4,0.9s-0.1,0-0.7,0
		c-0.6,0-1.1,0.4-2.1,0.2c-0.9-0.2-2.1,0.4-2.3-0.3c-0.3-0.6-0.5-0.8-0.6-1c-0.2-0.2-0.5,0.3-0.6-0.9c0-1.2,0.2-2.1-0.5-2.8
		c-0.7-0.8-1.6-0.6-1.6-1.4c0-0.8,0.7-3.1,0.9-5.1c0.2-2,0.3-8.3,0.3-8.5c0-0.2,0.5-3.5-0.1-3.9c-0.6-0.3-8.9-3.3-9.8-4.2
		c-0.9-0.9-6.8-3.6-8.5-1c-1.7,2.6-1.7,5.3-3.2,7c-1.5,1.8-3.6,3.6-4.5,5.1c-0.9,1.5-2.5,4.3-2.6,6c0,1.7-0.1,2.9,0.5,3.5
		c0.6,0.6,1,1.5,0.9,1.5c-0.1,0.1-1,0.2-1.4,0.3c-0.4,0.1-2.1,0-2.4-0.4c-0.3-0.5-0.6-1.2,0-2.2c0.6-1,0.3-6.2,0.1-7.1
		c-0.1-0.9,0.3-1.1,0.9-1.8c0.7-0.6,2.3-3.3,2.4-3.5c0-0.2-3.3,2.8-4.2,3.4c-0.9,0.6-4,3.4-4.6,5c-0.6,1.6-2.4,2.9-2.1,7.6
		c0,0,1.1,0.2,1.2,1.2s-0.5,0.7-0.5,0.7s-0.7-0.3-0.8-0.1c0,0.2-0.5,0.5-1,0.1c-0.5-0.4-0.9-0.2-1.3-0.8c-0.4-0.5-0.8-1.6-0.4-2.5
		c0.4-0.9,1.5-8.2,1.5-8.5c0-0.3,0.7-1,1-1.3c0.3-0.2,3.1-2.3,4.8-6.4c1.7-4.1,2.4-6.9,2.6-7.8c0.2-0.9-0.3-3.2,0.5-4.1
		c0.8-0.9,1.8-1.6,1.7-1.9c-0.1-0.3,0-0.6-1.9-0.5c-1.8,0.1-7,0.4-10.3-1C1.2,27.8,0,26.5,0,26.3c0-0.2,0.2-0.6,1.4-0.1
		c1.2,0.5,2.1,1.3,3.1,1.4c0.9,0.1,4.1,1.4,6.7,1.3c2.6-0.2,5.3-0.7,6.3-1c1-0.3,1.7-0.9,2.6-1.1c0.9-0.2,1.4-0.5,2.2-0.8
		c0.7-0.3,8.9-2,12.7-2.2c3.8-0.3,4.9-0.4,5.6-0.4c1.6-0.1,1.6-0.8,7.9-1.3c2-0.2,6.5-1.4,8.4-2.9c1.2-0.9,3.5-2.4,4.7-2.9
		c0,0,1.2-0.2,1.8-1.1c0.5-1,2-1.5,2.5-1.4c0.5,0.1,2.5-0.1,3-0.1c0.4,0,2.2,0.2,3,0.9c0.8,0.8,1.3,1.5,1.5,1.9
		c0.2,0.4,1.9,1.2,2.7,1.3c0.8,0.2,1.7,0.3,2.4,0.2C79.1,17.8,80.1,18.1,80,18.6z"/>
	<g>
	</g>
	<g>
	</g>
	<g>
	</g>
	<g>
	</g>
	<g>
	</g>
	<g>
	</g>
</g>
</svg>
