<?xml version="1.0" encoding="utf-8"?>
<!-- Generator: Adobe Illustrator 18.1.1, SVG Export Plug-In . SVG Version: 6.00 Build 0)  -->
<!DOCTYPE svg PUBLIC "-//W3C//DTD SVG 1.1//EN" "http://www.w3.org/Graphics/SVG/1.1/DTD/svg11.dtd">
<svg version="1.1" xmlns="http://www.w3.org/2000/svg" xmlns:xlink="http://www.w3.org/1999/xlink" x="0px" y="0px" width="65px"
	 height="65px" viewBox="0 0 65 65" style="enable-background:new 0 0 65 65;" xml:space="preserve">
<g id="Layer_1" style="display:none;">
	<g style="display:inline;">
		<defs>
			<path id="SVGID_1_" d="M65,15c-0.1,0.3-0.3,1.4-0.3,1.7c0,0.4,0,0.9-0.2,1.2c-0.2,0.4-1.1,0.3-1.4,0.7c-0.3,0.3-1.3,0.7-1.8,0.6
				c-0.5-0.1-0.5,0.2-0.8,0.2c-0.3-0.1-1.6-0.5-2.5-0.6c-0.9-0.1-5.3,2.2-5.9,2.7c-0.3,0.3-2.3,3-2.7,6.2c-0.1,0.7-2.2,2.9-2.9,3.8
				c-0.1,0.2-0.1,0.4,0.1,0.5c0.9,0.4,1.7,1,2,1.3c0.8,0.5,2.2,0.8,2.4,1.6c0.3,0.8,0.4,1.8,0.2,2.1c-0.2,0.3-1.3,1.1-2,1.7
				c-0.7,0.6-0.9,1.2-2.4,1.1c-1.5-0.1-2.8,0.5-3,0s0-0.6,0.3-1.1c0.3-0.5,0.1-0.5,0.7-1.1c0.5-0.6,0.6-0.4,1.6-0.3
				c1,0,1.4,0,1.3-0.6c-0.1-0.6,0.2-1.1-1.3-1.1c-0.7,0-2-0.3-3-0.5c-1.3,1.8-2.7,4.4-3.3,7.4c0,0.2-0.1,4.3-0.2,4.9
				c-0.2,0.6-0.2,1.1,0,1.9c0.2,0.8,0.2,2.1,1.1,2.4c0.9,0.3,1.5,1,1.8,1.3c0.3,0.4,0.3,0.7,0.3,0.7s-0.1,0-0.5,0
				c-0.5,0-0.9,0.3-1.7,0.1c-0.8-0.2-1.7,0.3-1.9-0.2c-0.2-0.5-0.4-0.6-0.5-0.8c-0.2-0.2-0.4,0.2-0.5-0.7c0-0.9,0.2-1.7-0.4-2.3
				c-0.6-0.6-1.3-0.5-1.3-1.1c0-0.6,0.6-2.5,0.7-4.1c0.2-1.6,0.2-6.8,0.2-6.9c0-0.2,0.4-2.9-0.1-3.2c-0.5-0.3-7.3-2.7-8-3.4
				c-0.7-0.7-5.5-2.9-6.9-0.8c-1.4,2.1-1.4,4.3-2.6,5.7c-1.2,1.4-2.9,2.9-3.7,4.1c-0.7,1.2-2.1,3.5-2.1,4.9c0,1.4-0.1,2.4,0.4,2.8
				c0.5,0.5,0.8,1.2,0.7,1.3c-0.1,0.1-0.8,0.2-1.1,0.3c-0.3,0.1-1.7,0-1.9-0.4c-0.3-0.4-0.5-1,0-1.8c0.5-0.8,0.2-5.1,0.1-5.8
				c-0.1-0.7,0.2-0.9,0.8-1.4c0.5-0.5,1.9-2.7,1.9-2.8c0-0.2-2.7,2.3-3.4,2.8c-0.8,0.5-3.2,2.8-3.7,4.1c-0.5,1.3-2,2.3-1.7,6.2
				c0,0,0.9,0.2,0.9,1c0,0.8-0.4,0.6-0.4,0.6s-0.6-0.2-0.6-0.1c0,0.2-0.4,0.4-0.8,0.1c-0.4-0.3-0.7-0.2-1-0.6
				c-0.3-0.4-0.7-1.3-0.4-2.1c0.3-0.8,1.2-6.7,1.2-6.9c0-0.3,0.6-0.8,0.8-1c0.3-0.2,2.5-1.8,3.9-5.2c1.4-3.3,1.9-5.6,2.1-6.4
				c0.2-0.8-0.2-2.6,0.4-3.4c0.6-0.8,1.5-1.3,1.4-1.5c-0.1-0.3,0-0.5-1.5-0.4c-1.5,0.1-5.7,0.3-8.4-0.8C0.9,22.6,0,21.5,0,21.3
				c0-0.2,0.2-0.5,1.2-0.1c1,0.4,1.7,1,2.5,1.2c0.8,0.1,3.4,1.2,5.5,1c2.1-0.1,4.3-0.6,5.1-0.8c0.8-0.3,1.4-0.7,2.1-0.9
				c0.7-0.1,1.1-0.4,1.8-0.7c0.6-0.3,7.2-1.6,10.3-1.8c3.1-0.2,4-0.3,4.5-0.3c1.3-0.1,1.3-0.7,6.5-1.1c1.6-0.1,5.3-1.2,6.8-2.4
				c0.9-0.7,2.9-1.9,3.9-2.4c0,0,1-0.2,1.5-0.9c0.4-0.8,1.7-1.2,2-1.1c0.4,0,2.1-0.1,2.4-0.1c0.4,0,1.8,0.1,2.4,0.8
				c0.6,0.6,1,1.2,1.2,1.5c0.1,0.3,1.6,0.9,2.2,1.1c0.6,0.1,1.4,0.2,2,0.2C64.3,14.5,65.1,14.7,65,15z"/>
		</defs>
		<clipPath id="SVGID_2_">
			<use xlink:href="#SVGID_1_"  style="overflow:visible;"/>
		</clipPath>
		<g style="clip-path:url(#SVGID_2_);">
			<rect x="0" y="7.3" style="fill:#ECC669;" width="65" height="4.5"/>
			<rect x="0" y="11.8" style="fill:#FCB34B;" width="65" height="4.5"/>
			<rect x="0" y="16.3" style="fill:#F05726;" width="65" height="4.5"/>
			<rect x="0" y="20.7" style="fill:#E71E5B;" width="65" height="4.5"/>
			<rect x="0" y="25.2" style="fill:#D53392;" width="65" height="4.5"/>
			<rect x="0" y="29.6" style="fill:#A26FAF;" width="65" height="4.5"/>
			<rect x="0" y="34.1" style="fill:#7D3A96;" width="65" height="4.5"/>
			<rect x="0" y="38.5" style="fill:#4491C7;" width="65" height="4.5"/>
			<rect x="0" y="43" style="fill:#66CDEE;" width="65" height="4.5"/>
			<rect x="0" y="47.5" style="fill:#99D3B4;" width="65" height="4.5"/>
			<rect x="0" y="51.9" style="fill:#6DB358;" width="65" height="4.5"/>
		</g>
	</g>
</g>
<g id="Layer_2">
	<path style="fill:#3D2C28;" d="M65,15.1c-0.1,0.3-0.3,1.4-0.3,1.7c0,0.4,0,0.9-0.2,1.2c-0.2,0.4-1.1,0.3-1.4,0.7
		c-0.3,0.3-1.3,0.7-1.8,0.6c-0.5-0.1-0.5,0.2-0.8,0.2c-0.3-0.1-1.6-0.5-2.5-0.6c-0.9-0.1-5.3,2.2-5.9,2.7c-0.3,0.3-2.3,3-2.7,6.2
		c-0.1,0.7-2.2,2.9-2.9,3.8c-0.1,0.2-0.1,0.4,0.1,0.5c0.9,0.4,1.7,1,2,1.3c0.8,0.5,2.2,0.8,2.4,1.6s0.4,1.8,0.2,2.1
		c-0.2,0.3-1.3,1.1-2,1.7c-0.7,0.6-0.9,1.2-2.4,1.1c-1.5-0.1-2.8,0.5-3,0c-0.2-0.4,0-0.6,0.3-1.1c0.3-0.5,0.1-0.5,0.7-1.1
		c0.5-0.6,0.6-0.4,1.6-0.3c1,0,1.4,0,1.3-0.6c-0.1-0.6,0.2-1.1-1.3-1.1c-0.7,0-2-0.3-3-0.5c-1.3,1.8-2.7,4.3-3.3,7.4
		c0,0.2-0.1,4.3-0.2,4.9c-0.2,0.6-0.2,1.1,0,1.9c0.2,0.8,0.2,2.1,1.1,2.4c0.9,0.3,1.5,1,1.8,1.3c0.3,0.4,0.3,0.7,0.3,0.7
		s-0.1,0-0.5,0c-0.5,0-0.9,0.3-1.7,0.1c-0.8-0.2-1.7,0.3-1.9-0.2c-0.2-0.5-0.4-0.6-0.5-0.8c-0.2-0.2-0.4,0.2-0.5-0.7
		c0-0.9,0.2-1.7-0.4-2.3c-0.6-0.6-1.3-0.5-1.3-1.1c0-0.6,0.5-2.5,0.7-4.1c0.2-1.6,0.2-6.7,0.2-6.9c0-0.2,0.4-2.9-0.1-3.1
		c-0.5-0.3-7.3-2.7-8-3.4c-0.7-0.7-5.5-2.9-6.9-0.8c-1.4,2.1-1.4,4.3-2.6,5.7c-1.2,1.4-2.9,2.9-3.7,4.1c-0.7,1.2-2.1,3.5-2.1,4.9
		c0,1.4-0.1,2.4,0.4,2.8c0.5,0.5,0.8,1.2,0.7,1.3c-0.1,0.1-0.8,0.2-1.1,0.3c-0.3,0.1-1.7,0-1.9-0.4c-0.3-0.4-0.5-1,0-1.8
		c0.5-0.8,0.2-5.1,0.1-5.8c-0.1-0.7,0.2-0.9,0.8-1.4c0.5-0.5,1.9-2.7,1.9-2.8c0-0.2-2.7,2.3-3.4,2.8c-0.8,0.5-3.2,2.8-3.7,4.1
		c-0.5,1.3-2,2.3-1.7,6.2c0,0,0.9,0.2,0.9,1c0,0.8-0.4,0.6-0.4,0.6S6,51.6,6,51.8c0,0.2-0.4,0.4-0.8,0.1c-0.4-0.3-0.7-0.2-1-0.6
		c-0.3-0.4-0.7-1.3-0.4-2c0.3-0.8,1.2-6.7,1.2-6.9c0-0.3,0.6-0.8,0.8-1c0.3-0.2,2.5-1.8,3.9-5.2c1.4-3.3,1.9-5.6,2.1-6.4
		c0.2-0.8-0.2-2.6,0.4-3.4c0.6-0.8,1.5-1.3,1.4-1.5c-0.1-0.3,0-0.5-1.5-0.4c-1.5,0.1-5.7,0.3-8.4-0.8C1,22.6,0,21.5,0,21.4
		c0-0.2,0.2-0.5,1.2-0.1c1,0.4,1.7,1,2.5,1.2c0.8,0.1,3.4,1.2,5.5,1c2.1-0.1,4.3-0.6,5.1-0.8c0.8-0.3,1.4-0.7,2.1-0.9
		c0.7-0.1,1.1-0.4,1.7-0.7c0.6-0.3,7.2-1.6,10.3-1.8c3.1-0.2,4-0.3,4.5-0.3c1.3-0.1,1.3-0.6,6.5-1.1c1.6-0.1,5.3-1.2,6.8-2.4
		c0.9-0.7,2.9-1.9,3.9-2.4c0,0,1-0.2,1.5-0.9c0.4-0.8,1.7-1.2,2-1.1c0.4,0,2-0.1,2.4-0.1c0.4,0,1.8,0.1,2.4,0.8
		c0.6,0.6,1,1.2,1.2,1.5c0.1,0.3,1.6,0.9,2.2,1.1c0.6,0.1,1.4,0.2,2,0.2C64.2,14.5,65,14.7,65,15.1z"/>
	<g>
	</g>
	<g>
	</g>
	<g>
	</g>
	<g>
	</g>
	<g>
	</g>
	<g>
	</g>
</g>
</svg>
