<svg xmlns="http://www.w3.org/2000/svg" width="145.8" height="109.9" viewBox="0 0 145.8 109.9"><g><path d="M145.6 17.3c-.1.8-.6 3.1-.6 3.9 0 .8.1 1.9-.4 2.7-.5.8-2.5.7-3.1 1.5-.7.8-2.9 1.7-4 1.3-1.1-.3-1.1.6-1.8.4-.8-.2-3.6-1.1-5.7-1.3-2.1-.1-11.9 4.9-13.2 6.1-.7.7-5.1 6.7-6.1 13.9-.2 1.5-4.9 6.4-6.5 8.4-.3.4-.2.9.3 1.1 2.1.9 3.8 2.3 4.6 2.8 1.7 1.1 4.9 1.9 5.5 3.7.6 1.8.8 4 .5 4.7s-2.9 2.5-4.5 3.9c-1.6 1.3-2.1 2.6-5.5 2.4-3.4-.3-6.3 1-6.8 0s.1-1.4.7-2.4.3-1.1 1.5-2.5 1.3-.8 3.6-.8c2.3.1 3.2.1 2.9-1.3s.5-2.4-2.8-2.4c-1.6 0-4.4-.6-6.8-1.1-2.9 4.1-6.1 9.7-7.5 16.7-.1.4-.2 9.6-.5 10.9-.4 1.3-.5 2.5 0 4.2.5 1.8.5 4.7 2.4 5.4 2 .7 3.4 2.2 4.1 3 .7.9.8 1.6.8 1.6s-.2-.1-1.2 0-2 .7-3.7.3c-1.7-.4-3.7.7-4.2-.5-.5-1.1-.8-1.4-1.2-1.9-.3-.4-.9.5-1-1.6-.1-2.1.4-3.7-.9-5.2s-2.9-1-2.9-2.5c0-1.4 1.2-5.7 1.6-9.2.4-3.6.5-15.1.5-15.5 0-.3 1-6.5-.2-7.1-1.2-.6-16.3-6-17.9-7.6-1.6-1.6-12.4-6.5-15.4-1.8-3.1 4.7-3 9.6-5.8 12.8-2.7 3.2-6.6 6.5-8.2 9.3-1.6 2.8-4.6 7.8-4.7 10.9 0 3.1-.1 5.3.9 6.4 1 1 1.8 2.6 1.6 2.8-.3.2-1.9.4-2.6.6-.7.2-3.7.1-4.3-.8-.6-.9-1.1-2.2 0-4.1 1.1-1.9.5-11.4.3-13-.2-1.6.5-2 1.7-3.2 1.2-1.2 4.2-6 4.3-6.3.1-.3-6 5.1-7.7 6.2-1.7 1.2-7.3 6.2-8.3 9.1-1 2.9-4.5 5.2-3.8 13.9 0 0 2 .4 2.1 2.2.1 1.8-.9 1.4-.9 1.4s-1.3-.5-1.4-.2c-.1.3-1 .9-1.8.2s-1.6-.4-2.3-1.4c-.7-.9-1.5-2.9-.8-4.6.6-1.6 2.5-14.8 2.5-15.4 0-.6 1.3-1.9 1.9-2.3.6-.4 5.6-4.1 8.7-11.6 3.1-7.5 4.3-12.5 4.8-14.2.4-1.7-.5-5.9.9-7.6 1.4-1.7 3.3-2.9 3.2-3.5-.2-.6-.1-1.1-3.4-.9-3.3.2-12.8.7-18.8-1.8-6-2.4-8.2-4.9-8.2-5.2 0-.3.4-1 2.6-.2 2.2.9 3.9 2.3 5.6 2.6 1.7.3 7.5 2.6 12.2 2.3 4.7-.3 9.6-1.3 11.5-1.9 1.9-.6 3.1-1.7 4.7-2 1.6-.3 2.6-.9 3.9-1.5 1.4-.6 16.2-3.6 23-4.1 6.9-.5 8.9-.7 10.1-.8 2.9-.1 2.9-1.5 14.5-2.4 3.6-.3 11.8-2.6 15.2-5.3 2.1-1.6 6.4-4.3 8.6-5.3 0 0 2.3-.4 3.2-2.1 1-1.7 3.7-2.7 4.6-2.6.9.1 4.6-.1 5.4-.2.8 0 4 .3 5.4 1.7 1.4 1.4 2.3 2.7 2.6 3.4.3.7 3.5 2.1 4.9 2.4 1.4.3 3.1.5 4.4.4 1.4.3 3.2.9 3.1 1.7z" fill="#3D2C28"/></g></svg>