<?xml version="1.0" encoding="utf-8"?>
<!-- Generator: Adobe Illustrator 18.1.1, SVG Export Plug-In . SVG Version: 6.00 Build 0)  -->
<!DOCTYPE svg PUBLIC "-//W3C//DTD SVG 1.1//EN" "http://www.w3.org/Graphics/SVG/1.1/DTD/svg11.dtd">
<svg version="1.1" xmlns="http://www.w3.org/2000/svg" xmlns:xlink="http://www.w3.org/1999/xlink" x="0px" y="0px" width="90px"
	 height="90px" viewBox="0 0 90 90" style="enable-background:new 0 0 90 90;" xml:space="preserve">
<g id="Layer_1">
	<g>
		<defs>
			<path id="SVGID_1_" d="M90.1,22.2c-0.1,0.5-0.4,1.9-0.4,2.4c0,0.5,0.1,1.2-0.3,1.7c-0.3,0.5-1.5,0.4-1.9,0.9
				c-0.4,0.5-1.8,1-2.5,0.8c-0.7-0.2-0.7,0.3-1.1,0.2c-0.5-0.1-2.2-0.7-3.5-0.8c-1.3-0.1-7.4,3.1-8.2,3.8c-0.5,0.4-3.2,4.1-3.8,8.6
				c-0.1,0.9-3,4-4,5.2c-0.2,0.2-0.1,0.6,0.2,0.7c1.3,0.6,2.4,1.4,2.8,1.7c1,0.7,3,1.2,3.4,2.3c0.3,1.1,0.5,2.5,0.3,2.9
				c-0.2,0.4-1.8,1.6-2.8,2.4c-1,0.8-1.3,1.6-3.4,1.5c-2.1-0.2-3.9,0.6-4.2,0c-0.3-0.6,0.1-0.8,0.4-1.5c0.3-0.6,0.2-0.7,0.9-1.6
				s0.8-0.5,2.2-0.5c1.4,0.1,2,0.1,1.8-0.8c-0.2-0.9,0.3-1.5-1.7-1.5c-1,0-2.7-0.3-4.2-0.7c-1.8,2.5-3.8,6-4.6,10.3
				c-0.1,0.3-0.1,5.9-0.3,6.7c-0.2,0.8-0.3,1.5,0,2.6c0.3,1.1,0.3,2.9,1.5,3.3c1.2,0.4,2.1,1.3,2.5,1.9c0.4,0.5,0.5,1,0.5,1
				s-0.1-0.1-0.7,0c-0.6,0-1.3,0.5-2.3,0.2c-1-0.3-2.3,0.4-2.6-0.3c-0.3-0.7-0.5-0.9-0.7-1.2c-0.2-0.3-0.6,0.3-0.6-1
				c0-1.3,0.2-2.3-0.6-3.2c-0.8-0.9-1.8-0.6-1.8-1.5c0-0.9,0.8-3.5,1-5.7c0.2-2.2,0.3-9.4,0.3-9.6c0-0.2,0.6-4-0.1-4.4
				c-0.7-0.4-10.1-3.7-11.1-4.7c-1-1-7.6-4.1-9.6-1.1c-1.9,2.9-1.9,5.9-3.6,7.9c-1.7,2-4.1,4-5.1,5.7c-1,1.7-2.9,4.8-2.9,6.8
				c0,1.9-0.1,3.3,0.5,3.9c0.6,0.6,1.1,1.6,1,1.7c-0.2,0.1-1.2,0.3-1.6,0.4c-0.4,0.1-2.3,0-2.7-0.5c-0.4-0.5-0.7-1.4,0-2.5
				c0.7-1.2,0.3-7,0.2-8c-0.1-1,0.3-1.3,1.1-2c0.7-0.7,2.6-3.7,2.7-3.9c0.1-0.2-3.7,3.1-4.8,3.9c-1.1,0.7-4.5,3.9-5.1,5.6
				c-0.6,1.8-2.8,3.2-2.3,8.6c0,0,1.3,0.3,1.3,1.4c0,1.1-0.5,0.8-0.5,0.8S8.2,73,8.2,73.2c0,0.2-0.6,0.6-1.1,0.1
				c-0.5-0.4-1-0.3-1.4-0.9c-0.4-0.6-0.9-1.8-0.5-2.8c0.4-1,1.6-9.2,1.6-9.6c0-0.4,0.8-1.2,1.2-1.4c0.4-0.3,3.4-2.6,5.4-7.2
				c1.9-4.6,2.7-7.8,3-8.8c0.3-1-0.3-3.6,0.6-4.7c0.8-1,2.1-1.8,2-2.1c-0.1-0.4,0-0.7-2.1-0.5c-2.1,0.1-7.9,0.4-11.7-1.1
				c-3.7-1.5-5.1-3-5.1-3.2c0-0.2,0.3-0.6,1.6-0.1C2.9,31.4,4,32.3,5,32.5c1.1,0.2,4.7,1.6,7.6,1.4c2.9-0.2,5.9-0.8,7.1-1.2
				c1.2-0.4,1.9-1,2.9-1.2c1-0.2,1.6-0.6,2.4-0.9c0.8-0.4,10-2.2,14.3-2.5c4.3-0.3,5.5-0.4,6.3-0.5c1.8-0.1,1.8-0.9,9-1.5
				c2.2-0.2,7.3-1.6,9.4-3.3c1.3-1,4-2.7,5.3-3.3c0,0,1.4-0.2,2-1.3c0.6-1.1,2.3-1.6,2.8-1.6c0.5,0.1,2.8-0.1,3.3-0.1
				c0.5,0,2.5,0.2,3.4,1.1c0.9,0.9,1.5,1.7,1.6,2.1c0.2,0.4,2.2,1.3,3.1,1.5c0.9,0.2,1.9,0.3,2.7,0.3C89,21.4,90.2,21.8,90.1,22.2z"
				/>
		</defs>
		<clipPath id="SVGID_2_">
			<use xlink:href="#SVGID_1_"  style="overflow:visible;"/>
		</clipPath>
		<g style="clip-path:url(#SVGID_2_);">
			<rect x="-0.1" y="11.6" style="fill:#ECC669;" width="90" height="6.2"/>
			<rect x="-0.1" y="17.7" style="fill:#FCB34B;" width="90" height="6.2"/>
			<rect x="-0.1" y="23.9" style="fill:#F05726;" width="90" height="6.2"/>
			<rect x="-0.1" y="30.1" style="fill:#E71E5B;" width="90" height="6.2"/>
			<rect x="-0.1" y="36.3" style="fill:#D53392;" width="90" height="6.2"/>
			<rect x="-0.1" y="42.5" style="fill:#A26FAF;" width="90" height="6.2"/>
			<rect x="-0.1" y="48.6" style="fill:#7D3A96;" width="90" height="6.2"/>
			<rect x="-0.1" y="54.8" style="fill:#4491C7;" width="90" height="6.2"/>
			<rect x="-0.1" y="61" style="fill:#66CDEE;" width="90" height="6.2"/>
			<rect x="-0.1" y="67.2" style="fill:#99D3B4;" width="90" height="6.2"/>
			<rect x="-0.1" y="73.3" style="fill:#6DB358;" width="90" height="6.2"/>
		</g>
	</g>
</g>
<g id="Layer_2" style="display:none;">
	<path style="display:inline;fill:#3D2C28;" d="M89.9,22.2c-0.1,0.5-0.4,1.9-0.4,2.4c0,0.5,0.1,1.2-0.3,1.7
		c-0.3,0.5-1.5,0.4-1.9,0.9c-0.4,0.5-1.8,1-2.5,0.8c-0.7-0.2-0.7,0.3-1.1,0.2c-0.5-0.1-2.2-0.7-3.5-0.8c-1.3-0.1-7.4,3.1-8.2,3.8
		c-0.5,0.4-3.2,4.1-3.8,8.6c-0.1,0.9-3,4-4,5.2c-0.2,0.2-0.1,0.6,0.2,0.7c1.3,0.6,2.4,1.4,2.8,1.7c1,0.7,3,1.2,3.4,2.3
		c0.3,1.1,0.5,2.5,0.3,2.9c-0.2,0.4-1.8,1.6-2.8,2.4c-1,0.8-1.3,1.6-3.4,1.5c-2.1-0.2-3.9,0.6-4.2,0c-0.3-0.6,0.1-0.8,0.4-1.5
		c0.3-0.6,0.2-0.7,0.9-1.6c0.8-0.9,0.8-0.5,2.2-0.5c1.4,0.1,2,0.1,1.8-0.8c-0.2-0.9,0.3-1.5-1.7-1.5c-1,0-2.7-0.3-4.2-0.7
		c-1.8,2.5-3.8,6-4.6,10.3c-0.1,0.3-0.1,5.9-0.3,6.7c-0.2,0.8-0.3,1.5,0,2.6c0.3,1.1,0.3,2.9,1.5,3.3c1.2,0.4,2.1,1.3,2.5,1.9
		c0.4,0.5,0.5,1,0.5,1s-0.1-0.1-0.7,0c-0.6,0-1.3,0.5-2.3,0.2c-1-0.3-2.3,0.4-2.6-0.3c-0.3-0.7-0.5-0.9-0.7-1.2
		c-0.2-0.3-0.6,0.3-0.6-1c0-1.3,0.2-2.3-0.6-3.2c-0.8-0.9-1.8-0.6-1.8-1.5c0-0.9,0.8-3.5,1-5.7c0.2-2.2,0.3-9.3,0.3-9.6
		c0-0.2,0.6-4-0.1-4.4c-0.7-0.4-10.1-3.7-11-4.7c-1-1-7.6-4-9.6-1.1c-1.9,2.9-1.9,5.9-3.6,7.9c-1.7,2-4.1,4-5.1,5.7
		c-1,1.7-2.9,4.8-2.9,6.8c0,1.9-0.1,3.3,0.5,3.9c0.6,0.6,1.1,1.6,1,1.7c-0.2,0.1-1.2,0.3-1.6,0.4c-0.4,0.1-2.3,0-2.7-0.5
		c-0.4-0.5-0.7-1.4,0-2.5c0.7-1.2,0.3-7,0.2-8c-0.1-1,0.3-1.3,1.1-2c0.7-0.7,2.6-3.7,2.7-3.9c0.1-0.2-3.7,3.1-4.8,3.9
		c-1.1,0.7-4.5,3.9-5.1,5.6c-0.6,1.8-2.8,3.2-2.3,8.6c0,0,1.3,0.3,1.3,1.4S9,73.2,9,73.2s-0.8-0.3-0.9-0.1c0,0.2-0.6,0.6-1.1,0.1
		c-0.5-0.4-1-0.3-1.4-0.9c-0.4-0.6-0.9-1.8-0.5-2.8c0.4-1,1.6-9.2,1.6-9.6c0-0.4,0.8-1.2,1.2-1.4c0.4-0.3,3.4-2.5,5.4-7.2
		c1.9-4.6,2.7-7.8,3-8.8c0.3-1-0.3-3.6,0.6-4.7c0.8-1,2.1-1.8,2-2.1c-0.1-0.4,0-0.7-2.1-0.5c-2,0.1-7.9,0.4-11.7-1.1
		c-3.7-1.5-5.1-3-5.1-3.2c0-0.2,0.3-0.6,1.6-0.1C2.9,31.4,4,32.3,5,32.5c1,0.2,4.7,1.6,7.6,1.4c2.9-0.2,5.9-0.8,7.1-1.2
		c1.2-0.4,1.9-1,2.9-1.2c1-0.2,1.6-0.6,2.4-0.9c0.8-0.4,10-2.2,14.3-2.5c4.3-0.3,5.5-0.4,6.3-0.5c1.8-0.1,1.8-0.9,8.9-1.5
		c2.2-0.2,7.3-1.6,9.4-3.3c1.3-1,4-2.7,5.3-3.3c0,0,1.4-0.2,2-1.3c0.6-1.1,2.3-1.6,2.8-1.6c0.5,0.1,2.8-0.1,3.3-0.1
		c0.5,0,2.5,0.2,3.4,1.1c0.9,0.9,1.4,1.7,1.6,2.1c0.2,0.4,2.2,1.3,3.1,1.5c0.9,0.2,1.9,0.3,2.7,0.3C88.9,21.4,90,21.8,89.9,22.2z"/>
</g>
</svg>
