<?xml version="1.0" encoding="utf-8"?>
<!-- Generator: Adobe Illustrator 18.1.1, SVG Export Plug-In . SVG Version: 6.00 Build 0)  -->
<!DOCTYPE svg PUBLIC "-//W3C//DTD SVG 1.1//EN" "http://www.w3.org/Graphics/SVG/1.1/DTD/svg11.dtd">
<svg version="1.1" id="Layer_1" xmlns="http://www.w3.org/2000/svg" xmlns:xlink="http://www.w3.org/1999/xlink" x="0px" y="0px"
	 width="65px" height="65px" viewBox="-147 220 65 65" style="enable-background:new -147 220 65 65;" xml:space="preserve">
<g id="Layer_1_1_" style="display:none;">
	<g style="display:inline;">
		<g>
			<defs>
				<path id="SVGID_1_" d="M-82,235c-0.1,0.3-0.3,1.4-0.3,1.7c0,0.4,0,0.9-0.2,1.2c-0.2,0.4-1.1,0.3-1.4,0.7
					c-0.3,0.3-1.3,0.7-1.8,0.6c-0.5-0.1-0.5,0.2-0.8,0.2c-0.3-0.1-1.6-0.5-2.5-0.6s-5.3,2.2-5.9,2.7c-0.3,0.3-2.3,3-2.7,6.2
					c-0.1,0.7-2.2,2.9-2.9,3.8c-0.1,0.2-0.1,0.4,0.1,0.5c0.9,0.4,1.7,1,2,1.3c0.8,0.5,2.2,0.8,2.4,1.6c0.3,0.8,0.4,1.8,0.2,2.1
					s-1.3,1.1-2,1.7c-0.7,0.6-0.9,1.2-2.4,1.1c-1.5-0.1-2.8,0.5-3,0s0-0.6,0.3-1.1c0.3-0.5,0.1-0.5,0.7-1.1c0.5-0.6,0.6-0.4,1.6-0.3
					c1,0,1.4,0,1.3-0.6c-0.1-0.6,0.2-1.1-1.3-1.1c-0.7,0-2-0.3-3-0.5c-1.3,1.8-2.7,4.4-3.3,7.4c0,0.2-0.1,4.3-0.2,4.9
					c-0.2,0.6-0.2,1.1,0,1.9c0.2,0.8,0.2,2.1,1.1,2.4s1.5,1,1.8,1.3c0.3,0.4,0.3,0.7,0.3,0.7s-0.1,0-0.5,0c-0.5,0-0.9,0.3-1.7,0.1
					c-0.8-0.2-1.7,0.3-1.9-0.2c-0.2-0.5-0.4-0.6-0.5-0.8c-0.2-0.2-0.4,0.2-0.5-0.7c0-0.9,0.2-1.7-0.4-2.3c-0.6-0.6-1.3-0.5-1.3-1.1
					s0.6-2.5,0.7-4.1c0.2-1.6,0.2-6.8,0.2-6.9c0-0.2,0.4-2.9-0.1-3.2s-7.3-2.7-8-3.4c-0.7-0.7-5.5-2.9-6.9-0.8
					c-1.4,2.1-1.4,4.3-2.6,5.7c-1.2,1.4-2.9,2.9-3.7,4.1c-0.7,1.2-2.1,3.5-2.1,4.9c0,1.4-0.1,2.4,0.4,2.8c0.5,0.5,0.8,1.2,0.7,1.3
					c-0.1,0.1-0.8,0.2-1.1,0.3c-0.3,0.1-1.7,0-1.9-0.4c-0.3-0.4-0.5-1,0-1.8s0.2-5.1,0.1-5.8c-0.1-0.7,0.2-0.9,0.8-1.4
					c0.5-0.5,1.9-2.7,1.9-2.8c0-0.2-2.7,2.3-3.4,2.8c-0.8,0.5-3.2,2.8-3.7,4.1s-2,2.3-1.7,6.2c0,0,0.9,0.2,0.9,1
					c0,0.8-0.4,0.6-0.4,0.6s-0.6-0.2-0.6-0.1c0,0.2-0.4,0.4-0.8,0.1c-0.4-0.3-0.7-0.2-1-0.6c-0.3-0.4-0.7-1.3-0.4-2.1
					s1.2-6.7,1.2-6.9c0-0.3,0.6-0.8,0.8-1c0.3-0.2,2.5-1.8,3.9-5.2c1.4-3.3,1.9-5.6,2.1-6.4c0.2-0.8-0.2-2.6,0.4-3.4
					c0.6-0.8,1.5-1.3,1.4-1.5c-0.1-0.3,0-0.5-1.5-0.4c-1.5,0.1-5.7,0.3-8.4-0.8c-2.6-1-3.5-2.1-3.5-2.3s0.2-0.5,1.2-0.1
					c1,0.4,1.7,1,2.5,1.2c0.8,0.1,3.4,1.2,5.5,1c2.1-0.1,4.3-0.6,5.1-0.8c0.8-0.3,1.4-0.7,2.1-0.9c0.7-0.1,1.1-0.4,1.8-0.7
					c0.6-0.3,7.2-1.6,10.3-1.8c3.1-0.2,4-0.3,4.5-0.3c1.3-0.1,1.3-0.7,6.5-1.1c1.6-0.1,5.3-1.2,6.8-2.4c0.9-0.7,2.9-1.9,3.9-2.4
					c0,0,1-0.2,1.5-0.9c0.4-0.8,1.7-1.2,2-1.1c0.4,0,2.1-0.1,2.4-0.1c0.4,0,1.8,0.1,2.4,0.8c0.6,0.6,1,1.2,1.2,1.5
					c0.1,0.3,1.6,0.9,2.2,1.1c0.6,0.1,1.4,0.2,2,0.2C-82.7,234.5-81.9,234.7-82,235z"/>
			</defs>
			<clipPath id="SVGID_2_">
				<use xlink:href="#SVGID_1_"  style="overflow:visible;"/>
			</clipPath>
			<g style="clip-path:url(#SVGID_2_);">
				<rect x="-147" y="227.3" style="fill:#ECC669;" width="65" height="4.5"/>
				<rect x="-147" y="231.8" style="fill:#FCB34B;" width="65" height="4.5"/>
				<rect x="-147" y="236.3" style="fill:#F05726;" width="65" height="4.5"/>
				<rect x="-147" y="240.7" style="fill:#E71E5B;" width="65" height="4.5"/>
				<rect x="-147" y="245.2" style="fill:#D53392;" width="65" height="4.5"/>
				<rect x="-147" y="249.6" style="fill:#A26FAF;" width="65" height="4.5"/>
				<rect x="-147" y="254.1" style="fill:#7D3A96;" width="65" height="4.5"/>
				<rect x="-147" y="258.5" style="fill:#4491C7;" width="65" height="4.5"/>
				<rect x="-147" y="263" style="fill:#66CDEE;" width="65" height="4.5"/>
				<rect x="-147" y="267.5" style="fill:#99D3B4;" width="65" height="4.5"/>
				<rect x="-147" y="271.9" style="fill:#6DB358;" width="65" height="4.5"/>
			</g>
		</g>
	</g>
</g>
<g id="Layer_2">
	<path style="fill:#9EAEBC;" d="M-82,235.1c-0.1,0.3-0.3,1.4-0.3,1.7c0,0.4,0,0.9-0.2,1.2c-0.2,0.4-1.1,0.3-1.4,0.7
		c-0.3,0.3-1.3,0.7-1.8,0.6s-0.5,0.2-0.8,0.2c-0.3-0.1-1.6-0.5-2.5-0.6c-0.9-0.1-5.3,2.2-5.9,2.7c-0.3,0.3-2.3,3-2.7,6.2
		c-0.1,0.7-2.2,2.9-2.9,3.8c-0.1,0.2-0.1,0.4,0.1,0.5c0.9,0.4,1.7,1,2,1.3c0.8,0.5,2.2,0.8,2.4,1.6c0.2,0.8,0.4,1.8,0.2,2.1
		c-0.2,0.3-1.3,1.1-2,1.7c-0.7,0.6-0.9,1.2-2.4,1.1s-2.8,0.5-3,0c-0.2-0.4,0-0.6,0.3-1.1c0.3-0.5,0.1-0.5,0.7-1.1
		c0.5-0.6,0.6-0.4,1.6-0.3c1,0,1.4,0,1.3-0.6c-0.1-0.6,0.2-1.1-1.3-1.1c-0.7,0-2-0.3-3-0.5c-1.3,1.8-2.7,4.3-3.3,7.4
		c0,0.2-0.1,4.3-0.2,4.9c-0.2,0.6-0.2,1.1,0,1.9c0.2,0.8,0.2,2.1,1.1,2.4c0.9,0.3,1.5,1,1.8,1.3c0.3,0.4,0.3,0.7,0.3,0.7
		s-0.1,0-0.5,0c-0.5,0-0.9,0.3-1.7,0.1c-0.8-0.2-1.7,0.3-1.9-0.2c-0.2-0.5-0.4-0.6-0.5-0.8c-0.2-0.2-0.4,0.2-0.5-0.7
		c0-0.9,0.2-1.7-0.4-2.3c-0.6-0.6-1.3-0.5-1.3-1.1s0.5-2.5,0.7-4.1c0.2-1.6,0.2-6.7,0.2-6.9c0-0.2,0.4-2.9-0.1-3.1
		c-0.5-0.3-7.3-2.7-8-3.4c-0.7-0.7-5.5-2.9-6.9-0.8c-1.4,2.1-1.4,4.3-2.6,5.7s-2.9,2.9-3.7,4.1c-0.7,1.2-2.1,3.5-2.1,4.9
		s-0.1,2.4,0.4,2.8c0.5,0.5,0.8,1.2,0.7,1.3c-0.1,0.1-0.8,0.2-1.1,0.3s-1.7,0-1.9-0.4c-0.3-0.4-0.5-1,0-1.8c0.5-0.8,0.2-5.1,0.1-5.8
		c-0.1-0.7,0.2-0.9,0.8-1.4c0.5-0.5,1.9-2.7,1.9-2.8c0-0.2-2.7,2.3-3.4,2.8c-0.8,0.5-3.2,2.8-3.7,4.1c-0.5,1.3-2,2.3-1.7,6.2
		c0,0,0.9,0.2,0.9,1c0,0.8-0.4,0.6-0.4,0.6s-0.4-0.5-0.4-0.3c0,0.2-0.4,0.4-0.8,0.1c-0.4-0.3-0.7-0.2-1-0.6c-0.3-0.4-0.7-1.3-0.4-2
		c0.3-0.8,1.2-6.7,1.2-6.9c0-0.3,0.6-0.8,0.8-1c0.3-0.2,2.5-1.8,3.9-5.2c1.4-3.3,1.9-5.6,2.1-6.4c0.2-0.8-0.2-2.6,0.4-3.4
		c0.6-0.8,1.5-1.3,1.4-1.5c-0.1-0.3,0-0.5-1.5-0.4s-5.7,0.3-8.4-0.8c-2.7-1.1-3.7-2.2-3.7-2.3c0-0.2,0.2-0.5,1.2-0.1
		c1,0.4,1.7,1,2.5,1.2c0.8,0.1,3.4,1.2,5.5,1c2.1-0.1,4.3-0.6,5.1-0.8c0.8-0.3,1.4-0.7,2.1-0.9c0.7-0.1,1.1-0.4,1.7-0.7
		c0.6-0.3,7.2-1.6,10.3-1.8s4-0.3,4.5-0.3c1.3-0.1,1.3-0.6,6.5-1.1c1.6-0.1,5.3-1.2,6.8-2.4c0.9-0.7,2.9-1.9,3.9-2.4
		c0,0,1-0.2,1.5-0.9c0.4-0.8,1.7-1.2,2-1.1c0.4,0,2-0.1,2.4-0.1c0.4,0,1.8,0.1,2.4,0.8c0.6,0.6,1,1.2,1.2,1.5
		c0.1,0.3,1.6,0.9,2.2,1.1c0.6,0.1,1.4,0.2,2,0.2C-82.8,234.5-82,234.7-82,235.1z"/>
</g>
</svg>
