<?xml version="1.0" encoding="utf-8"?>
<!-- Generator: Adobe Illustrator 18.1.1, SVG Export Plug-In . SVG Version: 6.00 Build 0)  -->
<!DOCTYPE svg PUBLIC "-//W3C//DTD SVG 1.1//EN" "http://www.w3.org/Graphics/SVG/1.1/DTD/svg11.dtd">
<svg version="1.1" id="Layer_1" xmlns="http://www.w3.org/2000/svg" xmlns:xlink="http://www.w3.org/1999/xlink" x="0px" y="0px"
	 width="51.1px" height="51.1px" viewBox="0 0 51.1 51.1" style="enable-background:new 0 0 51.1 51.1;" xml:space="preserve">
<path style="fill:#82979E;" d="M49.2,10.9c-1.7,0.8-3.6,1.3-5.6,1.5c2-1.2,3.5-3.1,4.3-5.4C46,8.2,43.9,9,41.7,9.4
	c-1.8-1.9-4.3-3.1-7.1-3.1c-5.4,0-9.7,4.3-9.7,9.7c0,0.8,0.1,1.5,0.3,2.2C17.2,17.9,10,14,5.2,8.1C4.4,9.6,3.9,11.2,3.9,13
	c0,3.4,1.7,6.3,4.3,8.1c-1.6-0.1-3.1-0.5-4.4-1.2c0,0,0,0.1,0,0.1c0,4.7,3.3,8.6,7.8,9.5c-0.8,0.2-1.7,0.3-2.6,0.3
	c-0.6,0-1.2-0.1-1.8-0.2c1.2,3.9,4.8,6.7,9.1,6.7c-3.3,2.6-7.5,4.1-12,4.1c-0.8,0-1.6,0-2.3-0.1c4.3,2.7,9.4,4.4,14.9,4.4
	c17.8,0,27.6-14.8,27.6-27.6c0-0.4,0-0.8,0-1.3C46.2,14.6,47.9,12.9,49.2,10.9z"/>
<g>
</g>
<g>
</g>
<g>
</g>
<g>
</g>
<g>
</g>
<g>
</g>
</svg>
