<?xml version="1.0" encoding="utf-8"?>
<!-- Generator: Adobe Illustrator 18.1.1, SVG Export Plug-In . SVG Version: 6.00 Build 0)  -->
<!DOCTYPE svg PUBLIC "-//W3C//DTD SVG 1.1//EN" "http://www.w3.org/Graphics/SVG/1.1/DTD/svg11.dtd">
<svg version="1.1" id="Layer_1" xmlns="http://www.w3.org/2000/svg" xmlns:xlink="http://www.w3.org/1999/xlink" x="0px" y="0px"
	 width="51.1px" height="51.1px" viewBox="0 0 51.1 51.1" style="enable-background:new 0 0 51.1 51.1;" xml:space="preserve">
<path style="fill:#82979E;" d="M4.1,25.6c0,8.5,4.9,15.9,12.1,19.4L5.9,16.8C4.7,19.5,4.1,22.5,4.1,25.6z M40.1,24.5
	c0-2.7-1-4.5-1.8-5.9c-1.1-1.8-2.1-3.3-2.1-5c0-2,1.5-3.8,3.6-3.8c0.1,0,0.2,0,0.3,0c-3.8-3.5-8.9-5.6-14.5-5.6
	c-7.5,0-14.1,3.9-18,9.7c0.5,0,1,0,1.4,0c2.2,0,5.7-0.3,5.7-0.3c1.2-0.1,1.3,1.6,0.1,1.8c0,0-1.2,0.1-2.5,0.2l7.8,23.3l4.7-14.1
	l-3.4-9.2c-1.2-0.1-2.3-0.2-2.3-0.2c-1.2-0.1-1-1.8,0.1-1.8c0,0,3.6,0.3,5.7,0.3c2.2,0,5.7-0.3,5.7-0.3c1.2-0.1,1.3,1.6,0.1,1.8
	c0,0-1.2,0.1-2.5,0.2l7.8,23.1l2.1-7.2C39.5,28.6,40.1,26.3,40.1,24.5z M25.9,27.4l-6.5,18.7c1.9,0.6,4,0.9,6.1,0.9
	c2.5,0,4.9-0.4,7.1-1.2c-0.1-0.1-0.1-0.2-0.2-0.3L25.9,27.4z M44.4,15.3c0.1,0.7,0.1,1.4,0.1,2.2c0,2.2-0.4,4.6-1.6,7.7l-6.6,19
	c6.4-3.7,10.7-10.7,10.7-18.6C47.1,21.8,46.1,18.3,44.4,15.3z"/>
<g>
	<path style="fill:#82979E;stroke:#82979E;stroke-miterlimit:10;" d="M0.5,25.6c0,13.8,11.2,25.1,25.1,25.1
		c13.8,0,25.1-11.2,25.1-25.1c0-13.8-11.2-25.1-25.1-25.1C11.7,0.5,0.5,11.7,0.5,25.6z M1.6,25.6c0-13.2,10.7-23.9,23.9-23.9
		c13.2,0,23.9,10.7,23.9,23.9c0,13.2-10.7,23.9-23.9,23.9C12.4,49.5,1.6,38.8,1.6,25.6z"/>
</g>
<g>
</g>
<g>
</g>
<g>
</g>
<g>
</g>
<g>
</g>
<g>
</g>
</svg>
